<?xml version="1.0" encoding="utf-8" ?>
<svg xmlns="http://www.w3.org/2000/svg" xmlns:xlink="http://www.w3.org/1999/xlink" width="1024" height="1024">
	<path transform="scale(2 2)" d="M121.5 83.375L163.577 44.6942C171.909 37.4473 180.178 29.8445 189.242 23.5254L211.242 73.0307L203.125 75.7703C151.516 94.7287 115.891 134.533 89.4937 181.066L76.5137 205.158L64.8768 230.945C66.9968 232.473 69.6489 233.627 71.9809 234.817L132.396 265.74L235.421 320.142C241.658 323.357 247.873 326.77 254.319 329.547C257.06 330.728 275.657 319.598 278.964 317.873L398.497 255.529C414.486 247.139 430.261 237.474 447.047 230.762L444.993 225.366C441.385 216.15 436.708 207.216 432.247 198.39C406.098 146.648 367.232 96.7797 310.771 76.6699C305.986 74.9658 300.826 73.9258 296.186 71.9033C297.191 69.2869 298.51 66.7711 299.645 64.2062L312.017 37.7452C314.373 32.6538 316.04 26.8674 318.941 22.1127L319.143 21.7836C324.027 24.6074 328.571 28.4214 332.937 31.9988L391.143 82.5958C413.799 104.526 434.12 128.81 452.341 154.524L481.481 198.005C484.969 203.519 488.274 205.609 488.292 211.582L488.301 248.958C488.311 253.798 487.811 259.386 488.617 264.143L347.846 335.405C339.994 339.437 331.716 343.047 324.108 347.501C306.313 357.917 308.621 371.381 304.751 387.375C301.253 401.829 289.53 415.698 274.154 417.665C271.431 418.013 268.559 417.935 265.817 417.943L253.326 417.947C247.583 417.938 241.54 418.314 235.875 417.316C221.872 414.85 211.681 403.291 207.875 390.006C204.111 376.866 205.655 362.225 194.376 352.152C190.296 348.508 185.075 346.149 180.236 343.682L37.9506 271.277C33.3186 268.963 27.9737 266.759 23.8587 263.617C23.6757 261.923 23.8846 260.206 23.9203 258.505L23.9869 217.378C23.9884 207.01 23.1073 209.945 28.6816 201.863L63.8502 149.875L99.1525 106.45L121.5 83.375Z"/>
	<path transform="scale(2 2)" d="M257.359 236.688L255.008 231.531L243.866 267.584C241.871 274.097 240.052 280.735 237.186 286.93L121.205 225.41C116.821 223.045 112.426 220.556 107.76 218.792L122.282 186.75C146.978 136.767 192.942 100.243 250.279 98.5689C253.169 98.3495 256.252 98.5029 259.164 98.5374C313.544 99.1813 360.744 133.25 386.615 180.031L404.619 218.495L274.007 286.337L257.359 236.688Z"/>
	<path transform="scale(2 2)" d="M40.7716 332.667C37.3394 325.774 34.6845 314.514 32.9742 307.089C31.9092 302.466 34.184 303.55 37.2302 305.028L68.2691 320.86C78.3383 326.092 77.8976 323.287 82.4753 333.75L86.8822 343.047C113.898 396.596 164.326 434.62 223.341 446.136L235.121 448.07C244.044 449.741 261.702 449.406 270.996 448.684C329.009 444.176 386.949 407.632 417.328 358.315C421.659 351.286 425.376 343.938 428.942 336.5L433.246 327.25C435.214 323.364 441.865 321.627 445.501 319.663L470.225 306.686C473.303 305.219 476.436 303.584 479.669 302.502L480.054 302.375L480.503 302.422C480.716 304.062 479.747 306.596 479.339 308.25C466.813 359.089 437.843 405.791 396.15 437.8C288.492 520.45 131.271 492.706 60.6574 374.222C52.7061 360.88 46.447 347.092 40.7716 332.667Z"/>
</svg>
